<?xml version="1.0" standalone="no"?>
<!DOCTYPE svg PUBLIC "-//W3C//DTD SVG 20010904//EN"
 "http://www.w3.org/TR/2001/REC-SVG-20010904/DTD/svg10.dtd">
<svg version="1.0" xmlns="http://www.w3.org/2000/svg"
 width="128.000000pt" height="128.000000pt" viewBox="0 0 128.000000 128.000000"
 preserveAspectRatio="xMidYMid meet">
<metadata>
Created by potrace 1.11, written by Peter Selinger 2001-2013
</metadata>
<g transform="translate(0.000000,128.000000) scale(0.100000,-0.100000)"
fill="#000000" stroke="none">
<path d="M535 1274 c-246 -52 -431 -215 -506 -446 -24 -74 -33 -226 -18 -308
21 -108 86 -232 172 -327 51 -56 175 -131 262 -159 102 -33 266 -38 360 -10
226 66 395 238 451 458 10 37 17 106 17 168 1 104 -10 150 -68 295 -8 20 -8
20 13 1 12 -11 25 -17 28 -13 14 14 -11 48 -59 81 -29 20 -81 63 -117 97 -69
64 -183 126 -275 149 -50 12 -223 21 -260 14z"/>
</g>
</svg>
